# AST/ASF file generated using VICON BodyLanguage
# -----------------------------------------------
:version 1.10
:name VICON
:units
  mass 1.0
  length 0.45
  angle deg
:documentation
   .ast/.asf automatically generated from VICON data using
   VICON BodyBuilder and BodyLanguage model FoxedUp or BRILLIANT.MOD
:root
   order TX TY TZ RX RY RZ
   axis XYZ
   position 0 0 0  
   orientation 0 0 0 
:bonedata
  begin
     id 1 
     name lhipjoint
     direction 0.70531 -0.63749 0.310071 
     length 2.59589 
     axis 0 0 0  XYZ
  end
  begin
     id 2 
     name lfemur
     direction 0.34202 -0.939693 0  
     length 6.19797  
     axis 0 0 20  XYZ
    dof rx ry rz
    limits (-160.0 20.0)
           (-70.0 70.0)
           (-60.0 70.0)
  end
  begin
     id 3 
     name ltibia
     direction 0.34202 -0.939693 0   
     length 7.80054   
     axis 0 0 20   XYZ
    dof rx
    limits (-10.0 170.0)
  end
  begin
     id 4 
     name lfoot
     direction 0.0828572 -0.227648 0.970212   
     length 1.88124   
     axis -90 7.62852e-016 20   XYZ
    dof rx rz
    limits (-45.0 90.0)
           (-70.0 20.0)
  end
  begin
     id 5 
     name ltoes
     direction 1.53544e-011 -4.219e-011 1   
     length 0.948015   
     axis -90 7.62852e-016 20   XYZ
    dof rx
    limits (-90.0 20.0)
  end
  begin
     id 6 
     name rhipjoint
     direction -0.730062 -0.614543 0.29891   
     length 2.69282  
     axis 0 0 0  XYZ 
  end
  begin
     id 7 
     name rfemur
     direction -0.34202 -0.939693 0   
     length 5.86298   
     axis 0 0 -20   XYZ
    dof rx ry rz
    limits (-160.0 20.0)
           (-70.0 70.0)
           (-70.0 60.0)
  end
  begin
     id 8 
     name rtibia
     direction -0.34202 -0.939693 0   
     length 7.72374   
     axis 0 0 -20   XYZ
    dof rx
    limits (-10.0 170.0)
 end
 begin
     id 9 
     name rfoot
     direction -0.0967421 -0.265797 0.959163   
     length 2.02368  
     axis -90 -7.62852e-016 -20   XYZ
    dof rx rz
    limits (-45.0 90.0)
           (-20.0 70.0)
  end
  begin
     id 10 
     name rtoes
     direction -1.53524e-011 -4.21768e-011 1   
     length 1.01373   
     axis -90 -7.62852e-016 -20   XYZ
    dof rx
    limits (-90.0 20.0)
  end
  begin
     id 11 
     name lowerback
     direction 0.00561702 0.992801 -0.119643   
     length 2.02816   
     axis 0 0 0   XYZ
    dof rx ry rz
    limits (-20.0 45.0)
           (-30.0 30.0)
           (-30.0 30.0)
  end
  begin
     id 12 
     name upperback
     direction 0.00155544 0.995735 -0.0922509   
     length 2.02265   
     axis 0 0 0   XYZ
    dof rx ry rz
    limits (-20.0 45.0)
           (-30.0 30.0)
           (-30.0 30.0)
  end
  begin
     id 13 
     name thorax
     direction -0.000937535 0.999317 -0.0369292   
     length 2.04823   
     axis 0 0 0   XYZ
    dof rx ry rz
    limits (-20.0 45.0)
           (-30.0 30.0)
           (-30.0 30.0)
  end
  begin
     id 14 
     name lowerneck
     direction -0.0813151 0.981659 0.172436   
     length 1.8875   
     axis 0 0 0   XYZ
    dof rx ry rz
    limits (-20.0 45.0)
           (-30.0 30.0)
           (-30.0 30.0)
  end
  begin
     id 15 
     name upperneck
     direction 0.119359 0.955672 -0.269157   
     length 1.92801   
     axis 0 0 0   XYZ
    dof rx ry rz
    limits (-20.0 45.0)
           (-30.0 30.0)
           (-30.0 30.0)
  end
  begin
     id 16
     name head
     direction 0.0421007 0.992672 -0.113268  
     length 1.95809  
     axis 0 0 0   XYZ
    dof rx ry rz
    limits (-20.0 45.0)
           (-30.0 30.0)
           (-30.0 30.0)
  end
  begin
     id 17 
     name lclavicle
     direction 0.944093 0.32865 -0.0260136  
     length 3.84992  
     axis 0 0 0   XYZ
    dof ry rz
    limits (-20.0 10.0)
           (0.0 20.0)
  end
  begin
     id 18 
     name lhumerus
     direction 1 -4.48979e-011 -1.27712e-029   
     length 5.53593   
     axis 180 -30 -90   XYZ
    dof rx ry rz
    limits (-60.0 90.0)
           (-90.0 90.0)
           (-90.0 90.0)
  end
  begin
     id 19
     name lradius
     direction 1 -4.48966e-011 1.00051e-028   
     length 3.13345   
     axis 180 -30 -90   XYZ
    dof rx
    limits (-10.0 170.0)
  end
  begin
     id 20
     name lwrist
     direction 1 -4.4896e-011 2.56952e-028   
     length 1.56673   
     axis -5.12785e-016 90 90   XYZ
    dof ry
    limits (-180.0 0.0)
 end
  begin
     id 21 
     name lhand
     direction 1 -4.48934e-011 5.13905e-028   
     length 0.713374   
     axis -3.27915e-016 90 90   XYZ
    dof rx rz
    limits (-90.0 90.0)
           (-45.0 45.0)
  end
  begin
     id 22 
     name lfingers
     direction 1 -4.48973e-011 1.02781e-027   
     length 0.575141   
     axis -6.5583e-016 90 90   XYZ
    dof rx
    limits (0.0 90.0)
  end
  begin
     id 23
     name lthumb
     direction 0.707107 -6.34883e-011 0.707107   
     length 0.82579   
     axis -90 45 2.85299e-015   XYZ
    dof rx rz
    limits (-45.0 45.0)
           (-45.0 45.0)
  end
  begin
     id 24 
     name rclavicle
     direction -0.936895 0.34884 0.0232243   
     length 3.53304  
     axis 0 0 0   XYZ 
    dof ry rz
    limits (-10.0 20.0)
           (-20.0 0.0)
  end
  begin
     id 25 
     name rhumerus
     direction -1 -4.48965e-011 1.05514e-027  
     length 5.4685   
     axis 180 30 90   XYZ
    dof rx ry rz
    limits (-90.0 60.0)
           (-90.0 90.0)
           (-90.0 90.0)
  end
  begin
     id 26 
     name rradius
     direction -1 -4.48964e-011 -1.1079e-027   
     length 3.22411   
     axis 180 30 90   XYZ
    dof rx
    limits (-10.0 170.0)
  end
  begin
     id 27 
     name rwrist
     direction -1 -4.48973e-011 2.56952e-028   
     length 1.61206   
     axis -5.12785e-016 -90 -90   XYZ
    dof ry
    limits (-180.0 0.0)
  end
  begin
     id 28
     name rhand
     direction -1 -4.48957e-011 5.13905e-028   
     length 0.74528   
     axis -3.27915e-016 -90 -90   XYZ
    dof rx rz
    limits (-90.0 90.0)
           (-45.0 45.0)
  end
  begin
     id 29
     name rfingers
     direction -1 -4.4901e-011 1.02781e-027   
     length 0.600864   
     axis -6.5583e-016 -90 -90   XYZ
    dof rx
    limits (0.0 90.0)
  end
  begin
     id 30
     name rthumb
     direction -0.707107 -6.34972e-011 0.707107   
     length 0.862724   
     axis -90 -45 -2.85299e-015   XYZ
    dof rx rz
    limits (-45.0 45.0)
           (-45.0 45.0)
  end
:hierarchy
  begin
    root lhipjoint rhipjoint lowerback
    lhipjoint lfemur
    lfemur ltibia
    ltibia lfoot
    lfoot ltoes
    rhipjoint rfemur
    rfemur rtibia
    rtibia rfoot
    rfoot rtoes
    lowerback upperback
    upperback thorax
    thorax lowerneck lclavicle rclavicle
    lowerneck upperneck
    upperneck head
    lclavicle lhumerus
    lhumerus lradius
    lradius lwrist
    lwrist lhand lthumb
    lhand lfingers
    rclavicle rhumerus
    rhumerus rradius
    rradius rwrist
    rwrist rhand rthumb
    rhand rfingers
  end

#!OML:ASF G:\Work\Work\Patient Classification 1\Liu\Session 1\Liu.ASF
:FULLY-SPECIFIED
:DEGREES
177
root 10.048 16.6861 -15.8962 4.2883 -4.5037 -3.72284
lowerback 1.29971 2.18568 4.29625
upperback 1.32444 2.94385 0.0808435
thorax 0.844903 1.50952 -2.33124
lowerneck -21.5811 -4.7532 -11.4001
upperneck 23.782 -5.05907 8.12077
head 11.9026 -2.27882 4.11783
rclavicle 9.44227e-015 1.82882e-014
rhumerus -37.1596 18.1553 -88.5483
rradius 48.1627
rwrist -11.133
rhand -16.8905 17.466
rfingers 7.12502
rthumb 9.34104 -12.307
lclavicle 9.44227e-015 1.82882e-014
lhumerus -40.8834 -0.645048 83.9992
lradius 24.8683
lwrist -7.0699
lhand -13.5304 30.3201
lfingers 7.12502
lthumb 12.5819 59.9212
rfemur 22.8596 0.970797 26.2527
rtibia 5.66463
rfoot 5.77203 1.06317
rtoes -19.6376
lfemur -39.464 -4.56723 -16.7239
ltibia 32.5662
lfoot -5.55366 11.8874
ltoes -10.731
178
root 10.0603 16.701 -15.6911 4.14405 -4.55754 -3.24472
lowerback 1.34228 2.22154 3.79101
upperback 1.4102 2.98883 -0.0635619
thorax 0.893387 1.53053 -2.19718
lowerneck -21.7441 -4.78077 -11.4971
upperneck 23.7053 -5.07257 8.23322
head 11.9127 -2.27522 4.17258
rclavicle 6.95746e-015 2.127e-014
rhumerus -37.2172 17.8887 -88.6174
rradius 47.7467
rwrist -11.193
rhand -16.5533 16.819
rfingers 7.12502
rthumb 9.66631 -12.9392
lclavicle 6.95746e-015 2.127e-014
lhumerus -40.5865 -0.532084 83.9807
lradius 24.5992
lwrist -7.48713
lhand -13.4666 30.4042
lfingers 7.12502
lthumb 12.6434 60.0015
rfemur 19.9025 0.71674 25.5223
rtibia 11.5075
rfoot 6.07293 1.21248
rtoes -21.3448
lfemur -39.08 -4.01103 -17.6436
ltibia 33.3423
lfoot -5.65882 10.5339
ltoes -9.4758
179
root 10.074 16.7022 -15.487 4.18235 -4.27492 -2.6405
lowerback 1.17915 2.15955 3.20773
upperback 1.43137 2.89704 -0.240641
thorax 0.979611 1.48188 -2.0461
lowerneck -21.7582 -4.77215 -11.4809
upperneck 23.5341 -5.04771 8.20914
head 11.8453 -2.26333 4.15984
rclavicle 1.79652e-014 1.98785e-015
rhumerus -37.398 17.4027 -88.5995
rradius 47.5579
rwrist -11.0175
rhand -16.1899 16.6931
rfingers 7.12502
rthumb 10.0169 -13.0485
lclavicle 1.79652e-014 1.98785e-015
lhumerus -40.2013 -0.667528 84.0685
lradius 24.2674
lwrist -7.572
lhand -13.0764 31.129
lfingers 7.12502
lthumb 13.0196 60.7027
rfemur 17.8514 0.00469811 24.5714
rtibia 15.9371
rfoot 7.09055 0.999525
rtoes -19.5332
lfemur -38.9577 -3.5294 -18.7992
ltibia 34.0541
lfoot -4.71432 9.38765
ltoes -8.60168
180
root 10.0855 16.7075 -15.2848 4.27322 -4.00937 -2.14674
lowerback 1.15072 2.09361 2.69334
upperback 1.25291 2.8088 -0.382844
thorax 0.788712 1.42901 -1.90836
lowerneck -21.6497 -4.70966 -11.3494
upperneck 23.5818 -4.98542 8.08629
head 11.8274 -2.24172 4.10275
rclavicle -3.85145e-015 1.94809e-014
rhumerus -37.8096 16.9803 -88.696
rradius 47.3144
rwrist -10.7319
rhand -16.7147 17.862
rfingers 7.12502
rthumb 9.51059 -11.9034
lclavicle -3.85145e-015 1.94809e-014
lhumerus -40.1324 -0.725274 84.1025
lradius 24.0796
lwrist -7.85614
lhand -12.1796 32.1721
lfingers 7.12502
lthumb 13.8839 61.6887
rfemur 15.9216 -0.689883 23.7406
rtibia 19.9982
rfoot 8.18461 0.68862
rtoes -17.8191
lfemur -38.7592 -3.24877 -19.7361
ltibia 34.6285
lfoot -4.01177 8.54526
ltoes -8.19867
181
root 10.0957 16.7212 -15.0815 4.17082 -4.11304 -1.75864
lowerback 1.37517 2.13785 2.29629
upperback 1.02809 2.87334 -0.548192
thorax 0.424525 1.45219 -1.87124
lowerneck -21.2833 -4.65711 -11.313
upperneck 23.6769 -5.00219 8.18896
head 11.796 -2.24162 4.13739
rclavicle 4.41053e-014 -1.31198e-014
rhumerus -38.3554 16.6486 -88.9869
rradius 46.9621
rwrist -10.6711
rhand -17.6231 19.5629
rfingers 7.12502
rthumb 8.63404 -10.2405
lclavicle 4.41053e-014 -1.31198e-014
lhumerus -40.4586 -0.856326 84.0435
lradius 24.3058
lwrist -8.36484
lhand -11.4089 32.7832
lfingers 7.12502
lthumb 14.6265 62.2473
rfemur 14.2144 -1.03637 23.0205
rtibia 23.7606
rfoot 9.59526 0.378684
rtoes -17.1513
lfemur -38.2118 -3.11122 -20.3727
ltibia 35.1224
lfoot -4.14151 8.14929
ltoes -9.96172
182
root 10.112 16.7375 -14.8795 3.97575 -4.25865 -1.25864
lowerback 1.6411 2.20863 1.89968
upperback 0.923165 2.96918 -0.771814
thorax 0.164425 1.49491 -1.89365
lowerneck -21.0072 -4.66208 -11.2854
upperneck 23.6999 -5.08728 8.30744
head 11.7634 -2.26841 4.16559
rclavicle -1.16786e-014 -1.23246e-014
rhumerus -38.7433 16.3127 -89.2519
rradius 46.5226
rwrist -10.8812
rhand -17.8235 20.0727
rfingers 7.12502
rthumb 8.4407 -9.7386
lclavicle -1.16786e-014 -1.23246e-014
lhumerus -40.5928 -1.16723 84.072
lradius 24.5787
lwrist -8.35667
lhand -11.3997 32.9152
lfingers 7.12502
lthumb 14.6354 62.3788
rfemur 12.541 -1.47602 22.0962
rtibia 27.6062
rfoot 11.0872 0.368486
rtoes -16.3207
lfemur -37.4045 -3.08341 -21.1069
ltibia 35.4142
lfoot -4.35197 7.9586
ltoes -12.2387
183
root 10.1364 16.759 -14.6794 3.84584 -4.12297 -0.531968
lowerback 1.62223 2.17166 1.33462
upperback 1.00258 2.91187 -0.997945
thorax 0.237012 1.46579 -1.80622
lowerneck -21.0978 -4.6884 -11.2328
upperneck 23.7101 -5.11541 8.24691
head 11.785 -2.28194 4.12855
rclavicle -4.44532e-014 2.98177e-015
rhumerus -38.8176 16.0952 -89.3236
rradius 46.1212
rwrist -11.1019
rhand -17.8559 20.174
rfingers 7.12502
rthumb 8.40942 -9.63862
lclavicle -4.44532e-014 2.98177e-015
lhumerus -40.2016 -1.32455 84.1795
lradius 24.5012
lwrist -8.25269
lhand -11.2959 33.0589
lfingers 7.12502
lthumb 14.7355 62.5152
rfemur 10.7122 -2.26295 20.8783
rtibia 31.5952
rfoot 12.0833 0.725841
rtoes -17.2022
lfemur -36.4828 -3.26624 -22.1431
ltibia 35.4033
lfoot -4.73742 7.63019
ltoes -11.5786
184
root 10.156 16.7874 -14.4894 3.73708 -3.92229 0.231757
lowerback 1.6494 2.09986 0.678733
upperback 1.0736 2.80792 -1.20282
thorax 0.268775 1.41179 -1.64797
lowerneck -21.2606 -4.70581 -11.1838
upperneck 23.7416 -5.09915 8.10633
head 11.8214 -2.28474 4.06911
rclavicle -1.3418e-014 -1.25234e-014
rhumerus -38.7862 15.8699 -89.3655
rradius 45.585
rwrist -10.6258
rhand -18.1837 20.4519
rfingers 7.12502
rthumb 8.09302 -9.37311
lclavicle -1.3418e-014 -1.25234e-014
lhumerus -39.7735 -1.45683 84.2777
lradius 24.2923
lwrist -8.2138
lhand -11.3696 32.7381
lfingers 7.12502
lthumb 14.6644 62.1996
rfemur 8.68577 -2.87831 19.8117
rtibia 35.6149
rfoot 13.0619 0.391488
rtoes -18.2453
lfemur -35.473 -3.59978 -23.1523
ltibia 35.1011
lfoot -5.29093 7.2961
ltoes -10.1805
185
root 10.1691 16.8211 -14.3069 3.6579 -3.77451 1.08714
lowerback 1.78166 2.04025 -0.109487
upperback 1.09916 2.71703 -1.45277
thorax 0.193272 1.36273 -1.46732
lowerneck -21.4643 -4.73848 -11.1005
upperneck 23.7608 -5.11736 7.98621
head 11.8647 -2.29639 4.00528
rclavicle 2.22639e-014 3.57812e-015
rhumerus -38.6478 15.5755 -89.4575
rradius 44.9434
rwrist -10.1609
rhand -17.7875 19.9836
rfingers 7.12502
rthumb 8.4754 -9.8263
lclavicle 2.22639e-014 3.57812e-015
lhumerus -39.3984 -1.79675 84.4212
lradius 24.1816
lwrist -7.99579
lhand -11.6317 32.2824
lfingers 7.12502
lthumb 14.4119 61.7621
rfemur 6.45209 -3.3093 18.7832
rtibia 39.5591
rfoot 14.851 -0.697307
rtoes -17.1876
lfemur -34.4128 -3.9307 -24.2048
ltibia 34.5645
lfoot -5.6576 7.17585
ltoes -9.85457
186
root 10.1836 16.8573 -14.119 3.65852 -3.71563 1.98603
lowerback 1.7748 1.9591 -0.999752
upperback 1.04468 2.59464 -1.6645
thorax 0.108665 1.29754 -1.18628
lowerneck -21.4545 -4.71018 -11.1934
upperneck 23.7803 -5.06113 8.03593
head 11.8682 -2.274 4.05035
rclavicle -1.05356e-014 4.37326e-015
rhumerus -38.7637 15.2482 -89.4332
rradius 45.0563
rwrist -11.0597
rhand -15.8449 18.6352
rfingers 7.12502
rthumb 10.3498 -11.0901
lclavicle -1.05356e-014 4.37326e-015
lhumerus -39.201 -2.08812 84.6457
lradius 24.2384
lwrist -7.76155
lhand -11.6125 32.4729
lfingers 7.12502
lthumb 14.4304 61.9512
rfemur 4.17768 -3.68324 17.682
rtibia 43.3298
rfoot 16.5085 -1.49257
rtoes -15.9098
lfemur -33.2952 -4.1223 -25.3335
ltibia 33.8637
lfoot -5.85394 7.03349
ltoes -11.7593
187
root 10.1993 16.8951 -13.9307 3.65895 -3.69106 2.6226
lowerback 1.68572 1.86103 -1.61174
upperback 1.04036 2.45705 -1.78875
thorax 0.132196 1.22611 -0.966596
lowerneck -21.4506 -4.66621 -11.2997
upperneck 23.8407 -4.9722 8.06116
head 11.8844 -2.24169 4.09499
rclavicle 3.85145e-015 3.97569e-015
rhumerus -39.0062 15.386 -89.677
rradius 44.5186
rwrist -10.2447
rhand -17.411 20.5353
rfingers 7.12502
rthumb 8.83876 -9.25962
lclavicle 3.85145e-015 3.97569e-015
lhumerus -38.8701 -2.05021 84.7361
lradius 24.2409
lwrist -7.82774
lhand -11.6305 32.6629
lfingers 7.12502
lthumb 14.4131 62.1424
rfemur 1.95661 -3.96633 16.9105
rtibia 46.8699
rfoot 17.8621 -2.05118
rtoes -15.9416
lfemur -32.1133 -4.17402 -26.2017
ltibia 33.1011
lfoot -5.90855 6.70177
ltoes -14.651
